<svg id="Layer_1" data-name="Layer 1" xmlns="http://www.w3.org/2000/svg" viewBox="0 0 242.06 332.79"><defs><style>.cls-1{fill:#2626db;}</style></defs><path class="cls-1" d="M36.2,287.25A9.72,9.72,0,0,1,38,293.14a10.64,10.64,0,0,1-1.51,5.7A13.8,13.8,0,0,1,32.67,303a17.49,17.49,0,0,1-5.34,2.5,21.45,21.45,0,0,1-5.85.85,31.13,31.13,0,0,1-3.2-.15,20.82,20.82,0,0,1-2.68-.44,6.63,6.63,0,0,0-2.87.84,2.27,2.27,0,0,0-1.4,1.95,1.3,1.3,0,0,0,.88,1.22,8.61,8.61,0,0,0,2.43.59c1,.12,2.22.21,3.57.25s2.78.15,4.3.3,3.19.37,4.71.66A13.39,13.39,0,0,1,31.27,313a8.38,8.38,0,0,1,2.87,2.61,7.06,7.06,0,0,1,1.1,4,10.62,10.62,0,0,1-1.91,6.48,13.49,13.49,0,0,1-4.86,4A23.07,23.07,0,0,1,22,332.21a40,40,0,0,1-6.59.58q-7.65,0-11.55-2.53A7.8,7.8,0,0,1,0,323.45a11.5,11.5,0,0,1,.37-2.91,8,8,0,0,1,1.32-2.75A12.92,12.92,0,0,1,7,313.74,5,5,0,0,1,5.33,312a4.45,4.45,0,0,1-.47-2.1,4.53,4.53,0,0,1,1.39-3.31,13.12,13.12,0,0,1,5.15-2.8,11.93,11.93,0,0,1-3.31-3.56,9.71,9.71,0,0,1-1.25-5,11.12,11.12,0,0,1,1.47-5.74,12.94,12.94,0,0,1,3.87-4.16,18.13,18.13,0,0,1,5.29-2.5,20.8,20.8,0,0,1,5.78-.85,24.77,24.77,0,0,1,5.08.48,14.43,14.43,0,0,1,4.12,1.51l6.4-5.22L42,282.25Zm-21,28.11-3.9-.22A11.94,11.94,0,0,0,7,318a6.06,6.06,0,0,0-1.73,4.38,4.52,4.52,0,0,0,1.17,3.27,8.14,8.14,0,0,0,2.87,1.88,14.58,14.58,0,0,0,3.57.88,28.38,28.38,0,0,0,3.35.22,25.8,25.8,0,0,0,4.6-.44,15.82,15.82,0,0,0,4.34-1.44,10.14,10.14,0,0,0,3.2-2.46,5.39,5.39,0,0,0,1.25-3.61,3.76,3.76,0,0,0-.62-2.2,4.31,4.31,0,0,0-1.73-1.4,10.45,10.45,0,0,0-2.58-.77c-1-.18-2-.31-3.16-.41Q17.81,315.51,15.23,315.36ZM12.51,295a6.16,6.16,0,0,0,2.54,5.44,10.73,10.73,0,0,0,6.29,1.77,14.55,14.55,0,0,0,4.12-.59A11.9,11.9,0,0,0,29,299.91a8.44,8.44,0,0,0,2.46-2.73,7.37,7.37,0,0,0,.92-3.75A6.11,6.11,0,0,0,29.72,288a11.1,11.1,0,0,0-6.4-1.8,14.12,14.12,0,0,0-4.08.59,11.5,11.5,0,0,0-3.46,1.69,8.41,8.41,0,0,0-2.39,2.72A7.71,7.71,0,0,0,12.51,295Z"/><path class="cls-1" d="M39.58,317.93,47,282.84h5.74l-7.43,35.09Zm11.48-40.69a2.85,2.85,0,0,1-2.21-.88,3.25,3.25,0,0,1-.81-2.28,4.87,4.87,0,0,1,.41-1.91,6,6,0,0,1,1.07-1.7A5.44,5.44,0,0,1,51,269.3a3.65,3.65,0,0,1,1.73-.44,2.78,2.78,0,0,1,2.21.92,3.36,3.36,0,0,1,.81,2.31,4.62,4.62,0,0,1-.41,1.88,6.26,6.26,0,0,1-1.06,1.66,5.29,5.29,0,0,1-1.51,1.17A3.62,3.62,0,0,1,51.06,277.24Z"/><path class="cls-1" d="M86.67,287.25a9.65,9.65,0,0,1,1.84,5.89,10.64,10.64,0,0,1-1.51,5.7A13.68,13.68,0,0,1,83.14,303a17.54,17.54,0,0,1-5.33,2.5,21.56,21.56,0,0,1-5.85.85,30.85,30.85,0,0,1-3.2-.15,20.7,20.7,0,0,1-2.69-.44,6.63,6.63,0,0,0-2.87.84,2.27,2.27,0,0,0-1.4,1.95,1.31,1.31,0,0,0,.89,1.22,8.45,8.45,0,0,0,2.42.59c1,.12,2.22.21,3.57.25s2.78.15,4.31.3,3.18.37,4.7.66a13.39,13.39,0,0,1,4,1.44,8.38,8.38,0,0,1,2.87,2.61,7,7,0,0,1,1.1,4,10.55,10.55,0,0,1-1.91,6.48,13.46,13.46,0,0,1-4.85,4,23.13,23.13,0,0,1-6.44,2.06,40,40,0,0,1-6.59.58q-7.65,0-11.55-2.53a7.8,7.8,0,0,1-3.9-6.81,11.5,11.5,0,0,1,.37-2.91,8.19,8.19,0,0,1,1.32-2.75,13,13,0,0,1,5.3-4.05A4.94,4.94,0,0,1,55.81,312a4.45,4.45,0,0,1-.48-2.1,4.53,4.53,0,0,1,1.39-3.31,13.16,13.16,0,0,1,5.16-2.8,11.83,11.83,0,0,1-3.32-3.56,9.71,9.71,0,0,1-1.25-5,11,11,0,0,1,1.48-5.74,12.9,12.9,0,0,1,3.86-4.16,18.07,18.07,0,0,1,5.3-2.5,20.67,20.67,0,0,1,5.77-.85,24.7,24.7,0,0,1,5.08.48,14.43,14.43,0,0,1,4.12,1.51l6.4-5.22,3.16,3.53Zm-21,28.11-3.9-.22A11.94,11.94,0,0,0,57.5,318a6.1,6.1,0,0,0-1.73,4.38A4.48,4.48,0,0,0,57,325.62a8,8,0,0,0,2.87,1.88,14.39,14.39,0,0,0,3.56.88,28.38,28.38,0,0,0,3.35.22,25.71,25.71,0,0,0,4.6-.44,15.82,15.82,0,0,0,4.34-1.44,10.14,10.14,0,0,0,3.2-2.46,5.34,5.34,0,0,0,1.25-3.61,3.76,3.76,0,0,0-.62-2.2,4.31,4.31,0,0,0-1.73-1.4,10.45,10.45,0,0,0-2.58-.77c-1-.18-2-.31-3.16-.41Q68.28,315.51,65.7,315.36ZM63,295a6.18,6.18,0,0,0,2.54,5.44,10.73,10.73,0,0,0,6.29,1.77,14.55,14.55,0,0,0,4.12-.59,11.9,11.9,0,0,0,3.53-1.69,8.59,8.59,0,0,0,2.47-2.73,7.47,7.47,0,0,0,.92-3.75A6.14,6.14,0,0,0,80.2,288a11.14,11.14,0,0,0-6.41-1.8,14.12,14.12,0,0,0-4.08.59,11.5,11.5,0,0,0-3.46,1.69,8.41,8.41,0,0,0-2.39,2.72A7.71,7.71,0,0,0,63,295Z"/><path class="cls-1" d="M109.63,317.93l.36-3a16.79,16.79,0,0,1-4.82,2.83,15.1,15.1,0,0,1-5.4,1,10.91,10.91,0,0,1-3.79-.66,9.8,9.8,0,0,1-3.17-1.88,8.76,8.76,0,0,1-2.13-2.94,9.49,9.49,0,0,1-.77-3.94,10.86,10.86,0,0,1,2.39-7.39,15.91,15.91,0,0,1,6-4.27,29.42,29.42,0,0,1,7.83-2,65.88,65.88,0,0,1,7.84-.52l.07-.44a13.5,13.5,0,0,0,.26-1.47,14.36,14.36,0,0,0,.11-1.69,5.25,5.25,0,0,0-1.33-3.72,5.57,5.57,0,0,0-4.26-1.43,10.82,10.82,0,0,0-5,1,15.7,15.7,0,0,0-3.72,2.65l-3.31-3.24a16.37,16.37,0,0,1,5.45-3.61,18.35,18.35,0,0,1,6.92-1.25,14.93,14.93,0,0,1,4.81.7,9.23,9.23,0,0,1,3.35,2,8.16,8.16,0,0,1,2,2.94,9.85,9.85,0,0,1,.66,3.61,23,23,0,0,1-.51,4.56l-4.71,22.22ZM113,299.61c-1.72,0-3.6.1-5.66.3a22.93,22.93,0,0,0-5.74,1.25A11.72,11.72,0,0,0,97.15,304a6.87,6.87,0,0,0-1.8,5,4.4,4.4,0,0,0,1.8,3.89,7,7,0,0,0,4.09,1.26,12.65,12.65,0,0,0,5-1.07,22.33,22.33,0,0,0,4.45-2.54Z"/><path class="cls-1" d="M122.8,317.93l10.37-49.07h5.67l-10.38,49.07Z"/><path class="cls-1" d="M145.6,317.56a12.15,12.15,0,0,1-4.08-3.16,13.53,13.53,0,0,1-2.5-4.67,18.67,18.67,0,0,1-.85-5.7,23.88,23.88,0,0,1,1.51-8.43,22.12,22.12,0,0,1,4.2-7,19.94,19.94,0,0,1,6.47-4.82A19.09,19.09,0,0,1,158.7,282a13.67,13.67,0,0,1,5.78,1.14,11.93,11.93,0,0,1,4.12,3.09,13.45,13.45,0,0,1,2.5,4.6,18.69,18.69,0,0,1,.84,5.67,23.82,23.82,0,0,1-1.5,8.42,22.85,22.85,0,0,1-4.23,7.1,20.48,20.48,0,0,1-6.52,4.93,18.8,18.8,0,0,1-8.35,1.84A13.26,13.26,0,0,1,145.6,317.56Zm.08-6.47a7.56,7.56,0,0,0,2.61,2.24,7.86,7.86,0,0,0,3.79.85,11,11,0,0,0,6-1.66,16.09,16.09,0,0,0,4.52-4.23,19.58,19.58,0,0,0,2.87-5.7,20.07,20.07,0,0,0,1-6.07,15,15,0,0,0-.48-3.82,9.3,9.3,0,0,0-1.51-3.24,7.74,7.74,0,0,0-2.65-2.25,8.18,8.18,0,0,0-3.82-.84A10.87,10.87,0,0,0,152,288a16.7,16.7,0,0,0-4.49,4.23A20.7,20.7,0,0,0,143.69,304a14.83,14.83,0,0,0,.48,3.75A10.19,10.19,0,0,0,145.68,311.09Z"/><path class="cls-1" d="M204.1,310.57a19,19,0,0,1-6.63,6.22,17.28,17.28,0,0,1-8.24,1.95,14.94,14.94,0,0,1-5.15-.88,12.8,12.8,0,0,1-4.3-2.61,12.53,12.53,0,0,1-3-4.31,14.91,14.91,0,0,1-1.1-6,26.63,26.63,0,0,1,1.36-8.35,24.19,24.19,0,0,1,3.86-7.39A20.17,20.17,0,0,1,187,284a16,16,0,0,1,8.06-2,13.73,13.73,0,0,1,7.69,2.1,12,12,0,0,1,4.67,6.51l-4.71,1.91a9.67,9.67,0,0,0-2.91-4.45,8.09,8.09,0,0,0-5.18-1.5,9.36,9.36,0,0,0-5.38,1.65,15.93,15.93,0,0,0-4.19,4.27,21.08,21.08,0,0,0-2.72,5.81,22.06,22.06,0,0,0-1,6.36q0,4.63,2.47,7.1a8.39,8.39,0,0,0,6.21,2.47,10.65,10.65,0,0,0,5.26-1.51,15.25,15.25,0,0,0,5-4.82Z"/><path class="cls-1" d="M207.33,317.93l10.52-49.07h5.6L220,285.34a19.64,19.64,0,0,1,5.3-2.47,21.66,21.66,0,0,1,6.32-.92c3.34,0,5.91.87,7.73,2.61s2.72,4.21,2.72,7.4c0,.69,0,1.42-.07,2.21a14.22,14.22,0,0,1-.37,2.42l-4.56,21.34h-5.74L236.1,296c.1-.59.19-1.14.26-1.66a11.19,11.19,0,0,0,.11-1.51,6,6,0,0,0-1.8-4.74,7.49,7.49,0,0,0-5.12-1.58,12.44,12.44,0,0,0-2.9.36,24.61,24.61,0,0,0-3,.92,22.05,22.05,0,0,0-2.68,1.25,18.4,18.4,0,0,0-2.21,1.44l-5.74,27.44Z"/><path class="cls-1" d="M156.09,203.08h-.43l-71.57-.74A41.09,41.09,0,0,1,43.49,161L43.82,113a41.09,41.09,0,0,1,17.77-33.5c7-4.84,14-9.81,21-14.78,5.33-3.77,10.66-7.55,16-11.27a41.18,41.18,0,0,1,47.28.14q7.09,5,14.18,10.08,9.54,6.8,19.11,13.57a41.14,41.14,0,0,1,17.36,33.39c.07,13.63.2,23.93.34,34.24.07,5.42.14,10.84.21,16.75a41.06,41.06,0,0,1-41,41.48Zm-.3-12.69a27.74,27.74,0,0,0,20.32-8.3,28.16,28.16,0,0,0,8.31-20.36c-.06-5.89-.14-11.3-.21-16.71-.13-10.35-.27-20.68-.34-34.35a28.42,28.42,0,0,0-12-23.08q-9.62-6.78-19.16-13.6-7.08-5-14.16-10.07a28.47,28.47,0,0,0-32.68-.08C100.58,67.54,95.28,71.3,90,75.06c-7.06,5-14.12,10-21.17,14.87a28.36,28.36,0,0,0-12.29,23.14l-.34,48.06a28.4,28.4,0,0,0,28.05,28.53Z"/><path class="cls-1" d="M154.3,160.85H86.89V110.94l34.52-22.66L154.3,111ZM99.58,148.16h42V117.69l-20.39-14.11L99.58,117.79Z"/><path class="cls-1" d="M173.61,243H67A64.74,64.74,0,0,1,2.32,178.34v-77a64.56,64.56,0,0,1,29.06-54Q47,37.08,62.61,26.55,74.4,18.65,86.2,10.78h0A64.91,64.91,0,0,1,160,12.25Q170.68,20,181.38,27.84c10,7.28,19.93,14.56,29.9,21.74a64.91,64.91,0,0,1,27,52.54v76.22A64.74,64.74,0,0,1,173.61,243ZM93.23,21.34Q81.45,29.19,69.68,37.09,54,47.59,38.38,58A51.94,51.94,0,0,0,15,101.37v77a52,52,0,0,0,52,52H173.61a52,52,0,0,0,52-52V102.12a52.17,52.17,0,0,0-21.71-42.24q-15-10.8-30-21.79-10.68-7.8-21.37-15.57a52.2,52.2,0,0,0-59.3-1.18Z"/></svg>